<?xml version="1.0" encoding="UTF-8"?>
<svg width="140px" height="48px" viewBox="0 0 140 48" version="1.1" xmlns="http://www.w3.org/2000/svg" xmlns:xlink="http://www.w3.org/1999/xlink">
    <title>品牌英文组合(国际)</title>
    <g id="品牌英文组合(国际)" stroke="none" stroke-width="1" fill="none" fill-rule="evenodd">
        <g id="编组-2" transform="translate(2.000000, 4.000000)">
            <path d="M73.4313368,0 L65.9344908,0 C61.8759465,0 58.5842783,2.92687039 58.5842783,6.53825079 L58.5842783,15.548156 C58.5842783,19.1595364 61.8759465,22.0864067 65.9344908,22.0864067 L73.4313368,22.0864067 C77.4898812,22.0864067 80.7798639,19.1595364 80.7798639,15.548156 L80.7798639,9.77028451 L69.4132431,9.77028451 L69.4132431,12.805058 C69.4132431,13.0883035 69.6424632,13.3192835 69.9256175,13.3192835 L76.1482693,13.3192835 L76.1482693,17.4971549 C76.1482693,17.7804004 75.9190492,18.0096944 75.635895,18.0096944 L63.7265618,18.0096944 C63.4417221,18.0096944 63.212502,17.7804004 63.212502,17.4971549 L63.212502,4.59262381 C63.212502,4.30769231 63.4417221,4.07839831 63.7265618,4.07839831 L75.635895,4.07839831 C75.9190492,4.07839831 76.1482693,4.30769231 76.1482693,4.59262381 L76.1482693,7.06427819 C76.1482693,7.34752371 76.3774894,7.5768177 76.6623291,7.5768177 L80.2658041,7.5768177 C80.5506438,7.5768177 80.7798639,7.34752371 80.7798639,7.06427819 L80.7798639,6.53825079 C80.7798639,2.92687039 77.4898812,0 73.4313368,0 L73.4313368,0 Z M135.487626,0.293361433 L132.236408,0.293361433 C131.951568,0.293361433 131.722348,0.522655427 131.722348,0.805900948 L131.722348,15.6324552 C130.028479,13.710432 118.796694,0.976185458 118.513539,0.674394099 C118.208474,0.354056902 117.803968,0.293361433 117.541039,0.293361433 L114.323531,0.293361433 C114.040376,0.293361433 113.811156,0.522655427 113.811156,0.805900948 L113.811156,21.2889357 C113.811156,21.5721812 114.040376,21.8031612 114.323531,21.8031612 L117.574748,21.8031612 C117.857902,21.8031612 118.088808,21.5721812 118.088808,21.2889357 L118.088808,6.34099052 C119.314124,7.73024236 131.117275,21.1135933 131.407171,21.4204426 C131.712236,21.7441517 132.115056,21.8014752 132.381356,21.8014752 L132.381356,21.8031612 L135.487626,21.8031612 C135.772465,21.8031612 136,21.5721812 136,21.2889357 L136,0.805900948 C136,0.522655427 135.772465,0.293361433 135.487626,0.293361433 L135.487626,0.293361433 Z M101.502373,0.859852476 C101.296749,0.499051633 100.971459,0.261327713 100.568638,0.261327713 L97.3578714,0.261327713 C96.9550507,0.261327713 96.6314459,0.499051633 96.425822,0.859852476 L86.3215972,20.7730242 C85.9828234,21.4153846 86.2710339,21.7997893 86.8676804,21.7997893 L90.0717056,21.7997893 C90.5368876,21.7997893 90.7104882,21.6767123 90.9481355,21.2299262 L98.9640976,5.21306639 L106.98006,21.2299262 C107.216022,21.6767123 107.389622,21.7997893 107.85649,21.7997893 L111.058829,21.7997893 C111.655476,21.7997893 111.945372,21.4153846 111.606598,20.7730242 L101.502373,0.859852476 Z M54.6268605,0.293361433 L51.3739574,0.293361433 C51.0908032,0.293361433 50.8615831,0.522655427 50.8615831,0.805900948 L50.8615831,15.6324552 C49.1677139,13.710432 37.934243,0.976185458 37.6527742,0.674394099 C37.3460237,0.354056902 36.9432031,0.293361433 36.6785887,0.293361433 L33.4610799,0.293361433 C33.1779257,0.293361433 32.9487056,0.522655427 32.9487056,0.805900948 L32.9487056,21.2889357 C32.9487056,21.5721812 33.1779257,21.8031612 33.4610799,21.8031612 L36.713983,21.8031612 C36.9971372,21.8031612 37.2263573,21.5721812 37.2263573,21.2889357 L37.2263573,6.34099052 C38.4516737,7.73024236 50.2565094,21.1135933 50.5464054,21.4204426 C50.8514704,21.7441517 51.2526056,21.8014752 51.5205909,21.8014752 L51.5205909,21.8031612 L54.6268605,21.8031612 C54.9100147,21.8031612 55.1392349,21.5721812 55.1392349,21.2889357 L55.1392349,0.805900948 C55.1392349,0.522655427 54.9100147,0.293361433 54.6268605,0.293361433 L54.6268605,0.293361433 Z M16.1954121,10.9454162 C16.1954121,11.2269758 15.966192,11.4579557 15.6813523,11.4579557 L4.69227051,11.4579557 L4.69227051,4.0800843 L15.6813523,4.0800843 C15.966192,4.0800843 16.1954121,4.30937829 16.1954121,4.5943098 L16.1954121,10.9454162 Z M13.7481504,0.293361433 L0.514059808,0.293361433 C0.230905553,0.293361433 0,0.522655427 0,0.805900948 L0,21.2889357 C0,21.5721812 0.230905553,21.8031612 0.514059808,21.8031612 L4.17821071,21.8031612 C4.46136496,21.8031612 4.69227051,21.5721812 4.69227051,21.2889357 L4.69227051,15.2463646 L13.7481504,15.2463646 C17.8083801,15.2463646 21.0983629,12.8472076 21.0983629,9.2341412 L21.0983629,6.83667018 C21.0983629,3.22360379 17.8083801,0.293361433 13.7481504,0.293361433 L13.7481504,0.293361433 Z M28.3862141,0.293361433 L24.7574575,0.293361433 C24.4743032,0.293361433 24.2450831,0.522655427 24.2450831,0.805900948 L24.2450831,21.2889357 C24.2450831,21.5721812 24.4743032,21.8031612 24.7574575,21.8031612 L28.3862141,21.8031612 C28.6693683,21.8031612 28.8985884,21.5721812 28.8985884,21.2889357 L28.8985884,0.805900948 C28.8985884,0.522655427 28.6693683,0.293361433 28.3862141,0.293361433 L28.3862141,0.293361433 Z" id="Fill-767" fill="#F05A23"></path>
            <path d="M101.721481,15.3694415 L96.2033436,15.3694415 C95.9201894,15.3694415 95.6909693,15.5987355 95.6909693,15.883667 L95.6909693,21.2821918 C95.6909693,21.5654373 95.9201894,21.7947313 96.2033436,21.7947313 L101.721481,21.7947313 C102.004635,21.7947313 102.235541,21.5654373 102.235541,21.2821918 L102.235541,15.883667 C102.235541,15.5987355 102.004635,15.3694415 101.721481,15.3694415" id="Fill-768" fill="#006441"></path>
            <path d="M17.5825309,38.057745 L17.5825309,33.1296101 C17.5825309,32.8311907 17.8134364,32.6002107 18.1134451,32.6002107 L21.5921974,32.6002107 C21.85007,32.6002107 22.0624357,32.8143309 22.0624357,33.0706006 C22.0624357,33.3353003 21.85007,33.5409905 21.5921974,33.5409905 L18.6342467,33.5409905 L18.6342467,35.0971549 L21.2079166,35.0971549 C21.4641038,35.0971549 21.6781549,35.311275 21.6781549,35.5776607 C21.6781549,35.8339305 21.4641038,36.0396207 21.2079166,36.0396207 L18.6342467,36.0396207 L18.6342467,37.6463646 L21.6360189,37.6463646 C21.8922061,37.6463646 22.1062572,37.8604847 22.1062572,38.1184405 C22.1062572,38.3831401 21.8922061,38.5888303 21.6360189,38.5888303 L18.1134451,38.5888303 C17.8134364,38.5888303 17.5825309,38.3578504 17.5825309,38.057745" id="Fill-769" fill="#F05A23"></path>
            <path d="M23.0972971,37.8351949 L24.3799185,36.2958904 L23.1916818,34.8830348 C23.0787572,34.74647 23.0197668,34.626765 23.0197668,34.4902002 C23.0197668,34.2002107 23.2422451,34.0113804 23.4984323,34.0113804 C23.7040562,34.0113804 23.8490042,34.1057956 23.9770978,34.2676502 L24.9951048,35.6029505 L26.0299662,34.2760801 C26.1496325,34.1226554 26.2945806,34.0113804 26.4749229,34.0113804 C26.7496499,34.0113804 26.9620156,34.2086407 26.9620156,34.4649104 C26.9620156,34.6099052 26.9030251,34.7127503 26.8170676,34.8155954 L25.5934367,36.2773446 L26.8592036,37.7744995 C26.9704428,37.9127503 27.0311187,38.0324552 27.0311187,38.16902 C27.0311187,38.4590095 26.8086404,38.6478398 26.5524532,38.6478398 C26.3468293,38.6478398 26.2018813,38.5534247 26.0721022,38.3831401 L24.9782504,36.9702845 L23.8827131,38.3831401 C23.7630467,38.5281349 23.6180987,38.6478398 23.4293292,38.6478398 C23.1647148,38.6478398 22.9523491,38.4505796 22.9523491,38.1943098 C22.9523491,38.0493151 23.0029123,37.93804 23.0972971,37.8351949" id="Fill-770" fill="#F05A23"></path>
            <path d="M31.7099057,36.33804 L31.7099057,36.3211802 C31.7099057,35.4478398 31.120001,34.8746048 30.4188571,34.8746048 C29.7177133,34.8746048 29.1008415,35.4562698 29.1008415,36.3211802 L29.1008415,36.33804 C29.1008415,37.2029505 29.7177133,37.7829294 30.4188571,37.7829294 C31.1284282,37.7829294 31.7099057,37.2282403 31.7099057,36.33804 L31.7099057,36.33804 Z M28.0929472,34.5424658 C28.0929472,34.2507903 28.3137401,34.0198103 28.6053215,34.0198103 C28.896903,34.0198103 29.1278086,34.2507903 29.1278086,34.5424658 L29.1278086,34.8240253 C29.4615261,34.3536354 29.9317644,33.9776607 30.6666171,33.9776607 C31.7267601,33.9776607 32.7616215,34.8155954 32.7616215,36.3211802 L32.7616215,36.33804 C32.7616215,37.8351949 31.7351873,38.6815595 30.6666171,38.6815595 C29.91491,38.6815595 29.4429862,38.3055848 29.1278086,37.8857745 L29.1278086,39.4857745 C29.1278086,39.7774499 28.896903,40 28.6053215,40 C28.3238527,40 28.0929472,39.7774499 28.0929472,39.4857745 L28.0929472,34.5424658 Z" id="Fill-771" fill="#F05A23"></path>
            <path d="M36.9246632,36.0143309 C36.8572455,35.3466807 36.4628521,34.8257113 35.7785627,34.8257113 C35.1465219,34.8257113 34.7015652,35.312961 34.6071805,36.0143309 L36.9246632,36.0143309 Z M35.898229,38.6916754 C34.5903261,38.6916754 33.5807463,37.7424658 33.5807463,36.348156 L33.5807463,36.3312961 C33.5807463,35.0398314 34.4959413,33.9793467 35.7886753,33.9793467 C37.2246719,33.9793467 37.934243,35.1595364 37.934243,36.2031612 C37.934243,36.4931507 37.7117646,36.6988409 37.4471502,36.6988409 L34.6156077,36.6988409 C34.7268469,37.4339305 35.2493339,37.8453109 35.9150835,37.8453109 C36.3516129,37.8453109 36.6937577,37.6918862 36.9853391,37.4507903 C37.061184,37.3917808 37.1302871,37.3580611 37.2499535,37.3580611 C37.4808591,37.3580611 37.6612014,37.5367756 37.6612014,37.7761855 C37.6612014,37.9043203 37.6005255,38.0155954 37.5229951,38.0931507 C37.1134327,38.4606955 36.5993729,38.6916754 35.898229,38.6916754 L35.898229,38.6916754 Z" id="Fill-772" fill="#F05A23"></path>
            <path d="M38.994386,34.5424658 C38.994386,34.2524763 39.2168643,34.0198103 39.5067604,34.0198103 C39.7983418,34.0198103 40.0292474,34.2524763 40.0292474,34.5424658 L40.0292474,35.0044257 C40.2685801,34.4396207 40.7135368,34.0113804 41.1669207,34.0113804 C41.492211,34.0113804 41.6792951,34.2255005 41.6792951,34.5256059 C41.6792951,34.7987355 41.5006382,34.9791359 41.2680472,35.0212856 C40.5331945,35.1494204 40.0292474,35.7142255 40.0292474,36.7831401 L40.0292474,38.1184405 C40.0292474,38.4 39.7983418,38.63098 39.5067604,38.63098 C39.2252915,38.63098 38.994386,38.4084299 38.994386,38.1184405 L38.994386,34.5424658 Z" id="Fill-773" fill="#F05A23"></path>
            <path d="M42.7394381,37.3395153 L42.7394381,34.9605901 L42.5692085,34.9605901 C42.319763,34.9605901 42.1225663,34.7650158 42.1225663,34.517176 C42.1225663,34.2676502 42.319763,34.0720759 42.5692085,34.0720759 L42.7394381,34.0720759 L42.7394381,33.3015806 C42.7394381,33.0200211 42.9703437,32.7890411 43.2602397,32.7890411 C43.5433939,32.7890411 43.7742995,33.0200211 43.7742995,33.3015806 L43.7742995,34.0720759 L44.5866825,34.0720759 C44.8344425,34.0720759 45.0400664,34.2676502 45.0400664,34.517176 C45.0400664,34.7650158 44.8344425,34.9605901 44.5866825,34.9605901 L43.7742995,34.9605901 L43.7742995,37.1759747 C43.7742995,37.5789252 43.978238,37.7424658 44.3288099,37.7424658 C44.4501617,37.7424658 44.5529737,37.71549 44.5866825,37.71549 C44.8175881,37.71549 45.023212,37.9043203 45.023212,38.1437302 C45.023212,38.3308746 44.8951184,38.4859852 44.748485,38.5449947 C44.5260066,38.6225501 44.3119555,38.6646997 44.0389139,38.6646997 C43.2770941,38.6646997 42.7394381,38.3308746 42.7394381,37.3395153" id="Fill-774" fill="#F05A23"></path>
            <path d="M46.1002094,34.5424658 C46.1002094,34.2524763 46.3226878,34.0198103 46.6125838,34.0198103 C46.9041653,34.0198103 47.1350708,34.2524763 47.1350708,34.5424658 L47.1350708,38.1184405 C47.1350708,38.4084299 46.9041653,38.63098 46.6125838,38.63098 C46.331115,38.63098 46.1002094,38.4084299 46.1002094,38.1184405 L46.1002094,34.5424658 Z M46.0226791,32.8564805 C46.0226791,32.5496312 46.2805517,32.3523709 46.6125838,32.3523709 C46.9463013,32.3523709 47.2024885,32.5496312 47.2024885,32.8564805 L47.2024885,32.908746 C47.2024885,33.2155954 46.9463013,33.4212856 46.6125838,33.4212856 C46.2805517,33.4212856 46.0226791,33.2155954 46.0226791,32.908746 L46.0226791,32.8564805 Z" id="Fill-775" fill="#F05A23"></path>
            <path d="M48.3148802,38.1353003 C48.2036411,38.0762908 48.119369,37.948156 48.119369,37.7761855 C48.119369,37.5452055 48.2980258,37.3563751 48.5373586,37.3563751 C48.6233161,37.3563751 48.7008464,37.3816649 48.7598369,37.4170706 C49.1963664,37.7070601 49.6497503,37.8537408 50.0593127,37.8537408 C50.5042694,37.8537408 50.7604566,37.6649104 50.7604566,37.3648051 L50.7604566,37.3479452 C50.7604566,36.9972603 50.281791,36.8775553 49.7525622,36.7157007 C49.0851272,36.5268704 48.3401619,36.2537408 48.3401619,35.3888303 L48.3401619,35.3719705 C48.3401619,34.517176 49.0514184,33.9945205 49.9480735,33.9945205 C50.426739,33.9945205 50.9323716,34.1310854 51.3689011,34.3620653 C51.5138491,34.4396207 51.6166611,34.5761855 51.6166611,34.7565859 C51.6166611,34.9959958 51.4278916,35.1747102 51.1885588,35.1747102 C51.1026013,35.1747102 51.052038,35.1578504 50.9829349,35.1241307 C50.6155085,34.9353003 50.239655,34.8155954 49.9227919,34.8155954 C49.5216567,34.8155954 49.2907511,35.0044257 49.2907511,35.2606955 L49.2907511,35.2775553 C49.2907511,35.6113804 49.7778439,35.7496312 50.3087581,35.9199157 C50.9660805,36.1256059 51.7110458,36.4240253 51.7110458,37.2366702 L51.7110458,37.255216 C51.7110458,38.2044257 50.9745077,38.6748156 50.0340311,38.6748156 C49.4609808,38.6748156 48.8373672,38.4944152 48.3148802,38.1353003" id="Fill-776" fill="#F05A23"></path>
            <path d="M55.8656604,36.0143309 C55.7982427,35.3466807 55.4038493,34.8257113 54.7195598,34.8257113 C54.0875191,34.8257113 53.6425624,35.312961 53.5481776,36.0143309 L55.8656604,36.0143309 Z M54.8392262,38.6916754 C53.5313232,38.6916754 52.5217434,37.7424658 52.5217434,36.348156 L52.5217434,36.3312961 C52.5217434,35.0398314 53.4369384,33.9793467 54.7296725,33.9793467 C56.165669,33.9793467 56.8752401,35.1595364 56.8752401,36.2031612 C56.8752401,36.4931507 56.6527618,36.6988409 56.3881474,36.6988409 L53.5566048,36.6988409 C53.667844,37.4339305 54.190331,37.8453109 54.8560806,37.8453109 C55.2926101,37.8453109 55.6347548,37.6918862 55.9263363,37.4507903 C56.0021812,37.3917808 56.0712843,37.3580611 56.1909507,37.3580611 C56.4218562,37.3580611 56.6021985,37.5367756 56.6021985,37.7761855 C56.6021985,37.9043203 56.5415226,38.0155954 56.4656777,38.0931507 C56.0544299,38.4606955 55.5403701,38.6916754 54.8392262,38.6916754 L54.8392262,38.6916754 Z" id="Fill-777" fill="#F05A23"></path>
            <path d="M60.3539924,35.6113804 L60.3539924,35.5945205 C60.3539924,33.8916754 61.6281865,32.4973656 63.4417221,32.4973656 C64.3653443,32.4973656 64.9721035,32.7704953 65.492905,33.1734457 C65.6058296,33.259431 65.698529,33.4044257 65.698529,33.5915701 C65.698529,33.8832455 65.4693088,34.1057956 65.1777274,34.1057956 C65.0327794,34.1057956 64.9299674,34.05353 64.8608643,34.0029505 C64.4513019,33.6691254 64.0063452,33.4634352 63.4332949,33.4634352 C62.2956216,33.4634352 61.4579569,34.404215 61.4579569,35.5776607 L61.4579569,35.5945205 C61.4579569,36.7662803 62.2871944,37.71549 63.4332949,37.71549 C64.0653357,37.71549 64.4934379,37.5097998 64.9299674,37.142255 C65.0058123,37.0748156 65.1170515,37.0225501 65.2451451,37.0225501 C65.5114449,37.0225501 65.7423504,37.2451001 65.7423504,37.5097998 C65.7423504,37.6733404 65.6648201,37.8014752 65.5704354,37.8874605 C65.0058123,38.3831401 64.3653443,38.6899895 63.3979006,38.6899895 C61.6534682,38.6899895 60.3539924,37.3310854 60.3539924,35.6113804" id="Fill-778" fill="#F05A23"></path>
            <path d="M66.8109207,34.5424658 C66.8109207,34.2524763 67.033399,34.0198103 67.3249805,34.0198103 C67.6148765,34.0198103 67.8457821,34.2524763 67.8457821,34.5424658 L67.8457821,35.0044257 C68.0851148,34.4396207 68.5300715,34.0113804 68.9834554,34.0113804 C69.3087457,34.0113804 69.4958298,34.2255005 69.4958298,34.5256059 C69.4958298,34.7987355 69.3171729,34.9791359 69.0845819,35.0212856 C68.3497292,35.1494204 67.8457821,35.7142255 67.8457821,36.7831401 L67.8457821,38.1184405 C67.8457821,38.4 67.6148765,38.63098 67.3249805,38.63098 C67.0418262,38.63098 66.8109207,38.4084299 66.8109207,38.1184405 L66.8109207,34.5424658 Z" id="Fill-779" fill="#F05A23"></path>
            <path d="M73.2847034,36.0143309 C73.2172857,35.3466807 72.8228923,34.8257113 72.1386028,34.8257113 C71.5065621,34.8257113 71.0616054,35.312961 70.9672206,36.0143309 L73.2847034,36.0143309 Z M72.2582692,38.6916754 C70.9503662,38.6916754 69.9407865,37.7424658 69.9407865,36.348156 L69.9407865,36.3312961 C69.9407865,35.0398314 70.8559815,33.9793467 72.1487155,33.9793467 C73.584712,33.9793467 74.2942831,35.1595364 74.2942831,36.2031612 C74.2942831,36.4931507 74.0718048,36.6988409 73.8071904,36.6988409 L70.9756478,36.6988409 C71.086887,37.4339305 71.609374,37.8453109 72.2751236,37.8453109 C72.7116531,37.8453109 73.0537978,37.6918862 73.3453793,37.4507903 C73.4212242,37.3917808 73.4903273,37.3580611 73.6099937,37.3580611 C73.8408992,37.3580611 74.0212415,37.5367756 74.0212415,37.7761855 C74.0212415,37.9043203 73.9605656,38.0155954 73.8830353,38.0931507 C73.4734729,38.4606955 72.9594131,38.6916754 72.2582692,38.6916754 L72.2582692,38.6916754 Z" id="Fill-780" fill="#F05A23"></path>
            <path d="M78.1505744,36.9635406 L78.1505744,36.6550053 C77.8842746,36.5521602 77.5337026,36.4762908 77.1241402,36.4762908 C76.4567052,36.4762908 76.0639972,36.7578504 76.0639972,37.2282403 L76.0639972,37.2451001 C76.0639972,37.6817703 76.448278,37.9296101 76.9437979,37.9296101 C77.6280874,37.9296101 78.1505744,37.5367756 78.1505744,36.9635406 M75.0544175,37.2889357 L75.0544175,37.2720759 C75.0544175,36.2958904 75.8162373,35.8170706 76.9185163,35.8170706 C77.4241489,35.8170706 77.7814626,35.8946259 78.13372,36.0059009 L78.13372,35.8946259 C78.13372,35.2522655 77.7393266,34.9100105 77.0129011,34.9100105 C76.6201931,34.9100105 76.2949028,34.9791359 76.0117485,35.090411 C75.9527581,35.1072708 75.9005094,35.1157007 75.8499461,35.1157007 C75.6106133,35.1157007 75.4134166,34.9285564 75.4134166,34.6874605 C75.4134166,34.5003161 75.5415102,34.3367756 75.6948854,34.2777661 C76.1229877,34.1142255 76.5595172,34.0113804 77.1494219,34.0113804 C77.8252841,34.0113804 78.3292313,34.1917808 78.6460944,34.517176 C78.9798119,34.8425711 79.1331871,35.3213909 79.1331871,35.9114858 L79.1331871,38.1353003 C79.1331871,38.4185458 78.9123942,38.632666 78.6292399,38.632666 C78.3292313,38.632666 78.1252928,38.4269758 78.1252928,38.1959958 L78.1252928,38.0240253 C77.8168569,38.3915701 77.3466186,38.6832455 76.6539019,38.6832455 C75.80781,38.6832455 75.0544175,38.1959958 75.0544175,37.2889357" id="Fill-781" fill="#F05A23"></path>
            <path d="M80.543902,37.3395153 L80.543902,34.9605901 L80.3736724,34.9605901 C80.124227,34.9605901 79.9270303,34.7650158 79.9270303,34.517176 C79.9270303,34.2676502 80.124227,34.0720759 80.3736724,34.0720759 L80.543902,34.0720759 L80.543902,33.3015806 C80.543902,33.0200211 80.7748076,32.7890411 81.0647036,32.7890411 C81.3478579,32.7890411 81.5787634,33.0200211 81.5787634,33.3015806 L81.5787634,34.0720759 L82.3911465,34.0720759 C82.6389064,34.0720759 82.8445304,34.2676502 82.8445304,34.517176 C82.8445304,34.7650158 82.6389064,34.9605901 82.3911465,34.9605901 L81.5787634,34.9605901 L81.5787634,37.1759747 C81.5787634,37.5789252 81.7827019,37.7424658 82.1332738,37.7424658 C82.2546257,37.7424658 82.3574376,37.71549 82.3911465,37.71549 C82.622052,37.71549 82.8276759,37.9043203 82.8276759,38.1437302 C82.8276759,38.3308746 82.6995824,38.4859852 82.5529489,38.5449947 C82.3304706,38.6225501 82.1164194,38.6646997 81.8433778,38.6646997 C81.081558,38.6646997 80.543902,38.3308746 80.543902,37.3395153" id="Fill-782" fill="#F05A23"></path>
            <path d="M86.8120608,36.0143309 C86.7446431,35.3466807 86.3502497,34.8257113 85.6659603,34.8257113 C85.0339195,34.8257113 84.5889628,35.312961 84.4945781,36.0143309 L86.8120608,36.0143309 Z M85.7856266,38.6916754 C84.4777237,38.6916754 83.4681439,37.7424658 83.4681439,36.348156 L83.4681439,36.3312961 C83.4681439,35.0398314 84.3833389,33.9793467 85.6760729,33.9793467 C87.1120695,33.9793467 87.8216406,35.1595364 87.8216406,36.2031612 C87.8216406,36.4931507 87.5991622,36.6988409 87.3345478,36.6988409 L84.5030053,36.6988409 C84.6142445,37.4339305 85.1367315,37.8453109 85.8024811,37.8453109 C86.2390105,37.8453109 86.5811553,37.6918862 86.8727367,37.4507903 C86.9485816,37.3917808 87.0176847,37.3580611 87.1373511,37.3580611 C87.3682567,37.3580611 87.548599,37.5367756 87.548599,37.7761855 C87.548599,37.9043203 87.4879231,38.0155954 87.4103927,38.0931507 C87.0008303,38.4606955 86.4867705,38.6916754 85.7856266,38.6916754 L85.7856266,38.6916754 Z" id="Fill-783" fill="#F05A23"></path>
            <path d="M88.711554,38.1353003 C88.6003148,38.0762908 88.5143572,37.948156 88.5143572,37.7761855 C88.5143572,37.5452055 88.6930141,37.3563751 88.9340323,37.3563751 C89.0183044,37.3563751 89.0958347,37.3816649 89.1565106,37.4170706 C89.5913547,37.7070601 90.0447386,37.8537408 90.4559864,37.8537408 C90.9009431,37.8537408 91.1571303,37.6649104 91.1571303,37.3648051 L91.1571303,37.3479452 C91.1571303,36.9972603 90.6784648,36.8775553 90.1475505,36.7157007 C89.4801155,36.5268704 88.7368356,36.2537408 88.7368356,35.3888303 L88.7368356,35.3719705 C88.7368356,34.517176 89.4464067,33.9945205 90.3447472,33.9945205 C90.8234128,33.9945205 91.3290454,34.1310854 91.7638894,34.3620653 C91.9088374,34.4396207 92.0116494,34.5761855 92.0116494,34.7565859 C92.0116494,34.9959958 91.8245653,35.1747102 91.5835471,35.1747102 C91.499275,35.1747102 91.4487118,35.1578504 91.3796086,35.1241307 C91.0121823,34.9353003 90.6346433,34.8155954 90.3194656,34.8155954 C89.916645,34.8155954 89.6857394,35.0044257 89.6857394,35.2606955 L89.6857394,35.2775553 C89.6857394,35.6113804 90.1745176,35.7496312 90.7037464,35.9199157 C91.3627542,36.1256059 92.1060341,36.4240253 92.1060341,37.2366702 L92.1060341,37.255216 C92.1060341,38.2044257 91.3711814,38.6748156 90.4307048,38.6748156 C89.8576545,38.6748156 89.2323555,38.4944152 88.711554,38.1353003" id="Fill-784" fill="#F05A23"></path>
            <path d="M97.5870915,38.2465753 L95.4920871,33.3184405 C95.4583783,33.2425711 95.4314112,33.1650158 95.4314112,33.0706006 C95.4314112,32.7890411 95.6623167,32.5580611 95.9623254,32.5580611 C96.235367,32.5580611 96.4157093,32.7114858 96.4999814,32.9340358 L98.2275595,37.255216 L99.9804191,32.9003161 C100.049522,32.7199157 100.238292,32.5580611 100.486052,32.5580611 C100.777633,32.5580611 101.008539,32.7806112 101.008539,33.0621707 C101.008539,33.139726 100.981572,33.2257113 100.95629,33.2847208 L98.8528584,38.2465753 C98.7416193,38.511275 98.5444226,38.6748156 98.2460993,38.6748156 L98.1854234,38.6748156 C97.8955274,38.6748156 97.6983307,38.511275 97.5870915,38.2465753" id="Fill-785" fill="#F05A23"></path>
            <path d="M104.344028,36.9635406 L104.344028,36.6550053 C104.077729,36.5521602 103.727157,36.4762908 103.317594,36.4762908 C102.650159,36.4762908 102.257451,36.7578504 102.257451,37.2282403 L102.257451,37.2451001 C102.257451,37.6817703 102.641732,37.9296101 103.137252,37.9296101 C103.821541,37.9296101 104.344028,37.5367756 104.344028,36.9635406 M101.247872,37.2889357 L101.247872,37.2720759 C101.247872,36.2958904 102.009691,35.8170706 103.11197,35.8170706 C103.617603,35.8170706 103.974917,35.8946259 104.327174,36.0059009 L104.327174,35.8946259 C104.327174,35.2522655 103.932781,34.9100105 103.206355,34.9100105 C102.813647,34.9100105 102.488357,34.9791359 102.205203,35.090411 C102.146212,35.1072708 102.093963,35.1157007 102.0434,35.1157007 C101.804067,35.1157007 101.606871,34.9285564 101.606871,34.6874605 C101.606871,34.5003161 101.734964,34.3367756 101.888339,34.2777661 C102.316442,34.1142255 102.752971,34.0113804 103.342876,34.0113804 C104.018738,34.0113804 104.522685,34.1917808 104.839548,34.517176 C105.173266,34.8425711 105.326641,35.3213909 105.326641,35.9114858 L105.326641,38.1353003 C105.326641,38.4185458 105.105848,38.632666 104.822694,38.632666 C104.522685,38.632666 104.318747,38.4269758 104.318747,38.1959958 L104.318747,38.0240253 C104.010311,38.3915701 103.540073,38.6832455 102.847356,38.6832455 C102.001264,38.6832455 101.247872,38.1959958 101.247872,37.2889357" id="Fill-786" fill="#F05A23"></path>
            <path d="M106.626117,32.8143309 C106.626117,32.5310854 106.848595,32.3001054 107.138491,32.3001054 C107.430073,32.3001054 107.660978,32.5310854 107.660978,32.8143309 L107.660978,38.1184405 C107.660978,38.4084299 107.430073,38.63098 107.138491,38.63098 C106.857022,38.63098 106.626117,38.4084299 106.626117,38.1184405 L106.626117,32.8143309 Z" id="Fill-787" fill="#F05A23"></path>
            <path d="M113.022369,38.1184405 C113.022369,38.4 112.791464,38.632666 112.499882,38.632666 C112.218413,38.632666 111.979081,38.4084299 111.979081,38.1184405 L111.979081,37.8874605 C111.687499,38.3157007 111.26951,38.6832455 110.56668,38.6832455 C109.550359,38.6832455 108.958769,37.9987355 108.958769,36.9466807 L108.958769,34.5424658 C108.958769,34.2524763 109.19136,34.0214963 109.472828,34.0214963 C109.762724,34.0214963 109.99363,34.2524763 109.99363,34.5424658 L109.99363,36.6381454 C109.99363,37.3395153 110.344202,37.7340358 110.961074,37.7340358 C111.559406,37.7340358 111.979081,37.3226554 111.979081,36.6212856 L111.979081,34.5424658 C111.979081,34.2524763 112.209986,34.0214963 112.499882,34.0214963 C112.783037,34.0214963 113.022369,34.2524763 113.022369,34.5424658 L113.022369,38.1184405 Z" id="Fill-788" fill="#F05A23"></path>
            <path d="M117.407889,36.0143309 C117.340472,35.3466807 116.946078,34.8257113 116.261789,34.8257113 C115.629748,34.8257113 115.184791,35.312961 115.090407,36.0143309 L117.407889,36.0143309 Z M116.381455,38.6916754 C115.073552,38.6916754 114.063972,37.7424658 114.063972,36.348156 L114.063972,36.3312961 C114.063972,35.0398314 114.979167,33.9793467 116.271901,33.9793467 C117.707898,33.9793467 118.417469,35.1595364 118.417469,36.2031612 C118.417469,36.4931507 118.194991,36.6988409 117.930376,36.6988409 L115.098834,36.6988409 C115.210073,37.4339305 115.73256,37.8453109 116.39831,37.8453109 C116.834839,37.8453109 117.176984,37.6918862 117.468565,37.4507903 C117.54441,37.3917808 117.613513,37.3580611 117.73318,37.3580611 C117.964085,37.3580611 118.144428,37.5367756 118.144428,37.7761855 C118.144428,37.9043203 118.083752,38.0155954 118.006221,38.0931507 C117.596659,38.4606955 117.082599,38.6916754 116.381455,38.6916754 L116.381455,38.6916754 Z" id="Fill-789" fill="#F05A23"></path>
        </g>
    </g>
</svg>